<?xml version="1.0" encoding="UTF-8"?>
<!DOCTYPE svg PUBLIC "-//W3C//DTD SVG 1.1//EN" "http://www.w3.org/Graphics/SVG/1.1/DTD/svg11.dtd">
<svg version="1.1" xmlns="http://www.w3.org/2000/svg" xmlns:xlink="http://www.w3.org/1999/xlink" x="0" y="0" width="446.842" height="446.842" viewBox="0, 0, 446.842, 446.842">
  <g id="Layer_1" transform="translate(600.936, -2730.42)">
    <g>
      <path d="M-377.515,3177.262 C-500.907,3177.262 -600.936,3077.233 -600.936,2953.841 C-600.936,2830.449 -500.907,2730.42 -377.515,2730.42 C-254.123,2730.42 -154.094,2830.449 -154.094,2953.841 C-154.094,3077.233 -254.123,3177.262 -377.515,3177.262 z" fill="#04132F"/>
      <g>
        <path d="M-505.987,2918.609 L-386.058,2798.68 C-374.517,2787.139 -357.391,2785.554 -347.806,2795.139 L-347.806,2795.139 C-338.221,2804.724 -339.806,2821.85 -351.347,2833.391 L-471.276,2953.32 C-482.817,2964.86 -499.943,2966.446 -509.528,2956.861 L-509.528,2956.861 C-519.113,2947.276 -517.528,2930.15 -505.987,2918.609 z" fill="#FFFFFF"/>
        <path d="M-403.682,3074.291 L-283.754,2954.362 C-272.213,2942.821 -255.087,2941.236 -245.502,2950.821 L-245.502,2950.821 C-235.916,2960.406 -237.502,2977.532 -249.043,2989.073 L-368.971,3109.001 C-380.512,3120.542 -397.638,3122.128 -407.223,3112.543 L-407.223,3112.543 C-416.809,3102.958 -415.223,3085.832 -403.682,3074.291 z" fill="#FFFFFF"/>
        <path d="M-488.554,3026.402 L-396.353,2934.201 C-387.48,2925.328 -371.876,2926.546 -361.501,2936.922 L-361.501,2936.922 C-351.126,2947.297 -349.907,2962.901 -358.78,2971.773 L-450.981,3063.975 C-459.854,3072.847 -475.458,3071.629 -485.833,3061.254 L-485.833,3061.254 C-496.208,3050.878 -497.427,3035.275 -488.554,3026.402 z" fill="#FFFFFF"/>
      </g>
    </g>
  </g>
</svg>
