<?xml version="1.0" encoding="UTF-8"?>
<!DOCTYPE svg PUBLIC "-//W3C//DTD SVG 1.1//EN" "http://www.w3.org/Graphics/SVG/1.1/DTD/svg11.dtd">
<svg version="1.1" xmlns="http://www.w3.org/2000/svg" xmlns:xlink="http://www.w3.org/1999/xlink" x="0" y="0" width="307.138" height="56.213" viewBox="0, 0, 307.138, 56.213">
  <g id="Layer_1" transform="translate(1414.852, -4109.704)">
    <g>
      <path d="M-1386.746,4165.916 C-1402.269,4165.916 -1414.852,4153.333 -1414.852,4137.81 C-1414.852,4122.287 -1402.269,4109.704 -1386.746,4109.704 C-1371.224,4109.704 -1358.64,4122.287 -1358.64,4137.81 C-1358.64,4153.333 -1371.224,4165.916 -1386.746,4165.916 z" fill="#04132F"/>
      <g>
        <path d="M-1402.908,4133.377 L-1387.821,4118.291 C-1386.369,4116.839 -1384.215,4116.639 -1383.009,4117.845 L-1383.009,4117.845 C-1381.803,4119.051 -1382.002,4121.206 -1383.454,4122.657 L-1398.541,4137.744 C-1399.993,4139.196 -1402.148,4139.396 -1403.353,4138.19 L-1403.353,4138.19 C-1404.559,4136.984 -1404.36,4134.83 -1402.908,4133.377 z" fill="#FFFFFF"/>
        <path d="M-1390.038,4152.962 L-1374.951,4137.875 C-1373.499,4136.423 -1371.345,4136.224 -1370.139,4137.43 L-1370.139,4137.43 C-1368.933,4138.636 -1369.133,4140.79 -1370.584,4142.242 L-1385.671,4157.329 C-1387.123,4158.781 -1389.278,4158.98 -1390.484,4157.774 L-1390.484,4157.774 C-1391.689,4156.569 -1391.49,4154.414 -1390.038,4152.962 z" fill="#FFFFFF"/>
        <path d="M-1400.715,4146.938 L-1389.116,4135.339 C-1388,4134.223 -1386.037,4134.376 -1384.732,4135.681 L-1384.732,4135.681 C-1383.426,4136.987 -1383.273,4138.95 -1384.389,4140.066 L-1395.988,4151.665 C-1397.104,4152.781 -1399.067,4152.627 -1400.373,4151.322 L-1400.373,4151.322 C-1401.678,4150.017 -1401.831,4148.054 -1400.715,4146.938 z" fill="#FFFFFF"/>
      </g>
    </g>
    <g>
      <path d="M-1355.284,4153.536 L-1344.781,4137.123 L-1354.299,4122.083 L-1347.045,4122.083 L-1340.881,4132.188 L-1334.844,4122.083 L-1327.653,4122.083 L-1337.213,4137.359 L-1326.709,4153.536 L-1334.194,4153.536 L-1341.007,4142.658 L-1347.842,4153.536 z" fill="#04132F"/>
      <path d="M-1323.355,4153.536 L-1323.355,4122.341 L-1317.15,4122.341 L-1317.15,4148.237 L-1301.72,4148.237 L-1301.72,4153.536 z" fill="#04132F"/>
      <path d="M-1298.554,4138.002 Q-1298.554,4133.197 -1297.15,4129.936 Q-1296.101,4127.533 -1294.288,4125.623 Q-1292.474,4123.714 -1290.315,4122.791 Q-1287.443,4121.547 -1283.69,4121.547 Q-1276.898,4121.547 -1272.82,4125.859 Q-1268.743,4130.172 -1268.743,4137.853 Q-1268.743,4145.469 -1272.789,4149.771 Q-1276.835,4154.072 -1283.606,4154.072 Q-1290.462,4154.072 -1294.508,4149.792 Q-1298.554,4145.512 -1298.554,4138.002 z M-1292.16,4137.788 Q-1292.16,4143.13 -1289.749,4145.887 Q-1287.338,4148.644 -1283.627,4148.644 Q-1279.917,4148.644 -1277.537,4145.909 Q-1275.158,4143.173 -1275.158,4137.702 Q-1275.158,4132.296 -1277.474,4129.635 Q-1279.791,4126.975 -1283.627,4126.975 Q-1287.464,4126.975 -1289.812,4129.667 Q-1292.16,4132.36 -1292.16,4137.788 z" fill="#04132F"/>
      <path d="M-1263.837,4153.536 L-1263.837,4122.083 L-1257.799,4122.083 L-1245.22,4143.087 L-1245.22,4122.083 L-1239.455,4122.083 L-1239.455,4153.536 L-1245.682,4153.536 L-1258.072,4133.025 L-1258.072,4153.536 z" fill="#04132F"/>
      <path d="M-1201.3,4141.972 L-1195.283,4143.924 Q-1196.667,4149.073 -1199.885,4151.573 Q-1203.103,4154.072 -1208.05,4154.072 Q-1214.172,4154.072 -1218.113,4149.792 Q-1222.055,4145.512 -1222.055,4138.088 Q-1222.055,4130.236 -1218.092,4125.892 Q-1214.13,4121.547 -1207.673,4121.547 Q-1202.034,4121.547 -1198.511,4124.958 Q-1196.415,4126.975 -1195.367,4130.751 L-1201.509,4132.253 Q-1202.054,4129.807 -1203.784,4128.391 Q-1205.514,4126.975 -1207.987,4126.975 Q-1211.405,4126.975 -1213.533,4129.485 Q-1215.661,4131.995 -1215.661,4137.617 Q-1215.661,4143.581 -1213.564,4146.113 Q-1211.468,4148.644 -1208.113,4148.644 Q-1205.639,4148.644 -1203.857,4147.035 Q-1202.075,4145.426 -1201.3,4141.972 z" fill="#04132F"/>
      <path d="M-1184.13,4122.083 L-1184.13,4133.647 Q-1181.279,4130.236 -1177.316,4130.236 Q-1175.283,4130.236 -1173.648,4131.008 Q-1172.012,4131.781 -1171.184,4132.982 Q-1170.356,4134.184 -1170.052,4135.643 Q-1169.748,4137.102 -1169.748,4140.169 L-1169.748,4153.536 L-1175.639,4153.536 L-1175.639,4141.5 Q-1175.639,4137.917 -1175.975,4136.951 Q-1176.31,4135.986 -1177.159,4135.417 Q-1178.008,4134.849 -1179.287,4134.849 Q-1180.755,4134.849 -1181.908,4135.578 Q-1183.061,4136.308 -1183.595,4137.777 Q-1184.13,4139.247 -1184.13,4142.122 L-1184.13,4153.536 L-1190.021,4153.536 L-1190.021,4122.083 z" fill="#04132F"/>
      <path d="M-1159.371,4137.702 L-1164.717,4136.715 Q-1163.815,4133.411 -1161.614,4131.824 Q-1159.413,4130.236 -1155.073,4130.236 Q-1151.132,4130.236 -1149.203,4131.191 Q-1147.274,4132.146 -1146.488,4133.615 Q-1145.702,4135.085 -1145.702,4139.011 L-1145.765,4146.048 Q-1145.765,4149.052 -1145.482,4150.479 Q-1145.199,4151.905 -1144.423,4153.536 L-1150.251,4153.536 Q-1150.482,4152.935 -1150.817,4151.755 Q-1150.964,4151.219 -1151.027,4151.047 Q-1152.536,4152.549 -1154.255,4153.3 Q-1155.974,4154.051 -1157.924,4154.051 Q-1161.362,4154.051 -1163.344,4152.141 Q-1165.325,4150.232 -1165.325,4147.314 Q-1165.325,4145.383 -1164.423,4143.871 Q-1163.522,4142.358 -1161.897,4141.553 Q-1160.272,4140.749 -1157.211,4140.148 Q-1153.081,4139.354 -1151.488,4138.668 L-1151.488,4138.067 Q-1151.488,4136.329 -1152.327,4135.589 Q-1153.165,4134.849 -1155.492,4134.849 Q-1157.065,4134.849 -1157.945,4135.482 Q-1158.826,4136.115 -1159.371,4137.702 z M-1151.488,4142.594 Q-1152.62,4142.98 -1155.073,4143.517 Q-1157.526,4144.053 -1158.281,4144.568 Q-1159.434,4145.405 -1159.434,4146.692 Q-1159.434,4147.958 -1158.511,4148.88 Q-1157.589,4149.803 -1156.163,4149.803 Q-1154.57,4149.803 -1153.123,4148.73 Q-1152.054,4147.915 -1151.719,4146.735 Q-1151.488,4145.962 -1151.488,4143.795 z" fill="#04132F"/>
      <path d="M-1139.895,4127.662 L-1139.895,4122.083 L-1134.004,4122.083 L-1134.004,4127.662 z M-1139.895,4153.536 L-1139.895,4130.751 L-1134.004,4130.751 L-1134.004,4153.536 z" fill="#04132F"/>
      <path d="M-1107.714,4153.536 L-1113.605,4153.536 L-1113.605,4141.907 Q-1113.605,4138.217 -1113.983,4137.134 Q-1114.36,4136.05 -1115.209,4135.45 Q-1116.058,4134.849 -1117.253,4134.849 Q-1118.783,4134.849 -1119.999,4135.707 Q-1121.215,4136.565 -1121.666,4137.981 Q-1122.117,4139.397 -1122.117,4143.216 L-1122.117,4153.536 L-1128.008,4153.536 L-1128.008,4130.751 L-1122.536,4130.751 L-1122.536,4134.098 Q-1119.622,4130.236 -1115.199,4130.236 Q-1113.249,4130.236 -1111.635,4130.955 Q-1110.02,4131.673 -1109.192,4132.789 Q-1108.364,4133.905 -1108.039,4135.321 Q-1107.714,4136.737 -1107.714,4139.376 z" fill="#04132F"/>
    </g>
  </g>
</svg>
