<?xml version="1.0" encoding="UTF-8"?>
<!DOCTYPE svg PUBLIC "-//W3C//DTD SVG 1.1//EN" "http://www.w3.org/Graphics/SVG/1.1/DTD/svg11.dtd">
<svg version="1.1" xmlns="http://www.w3.org/2000/svg" xmlns:xlink="http://www.w3.org/1999/xlink" x="0" y="0" width="307.711" height="54.531" viewBox="0, 0, 307.711, 54.531">
  <g id="Layer_1" transform="translate(1414.852, -4212.923)">
    <g>
      <path d="M-1354.712,4255.414 L-1344.208,4239.001 L-1353.726,4223.961 L-1346.473,4223.961 L-1340.309,4234.066 L-1334.271,4223.961 L-1327.08,4223.961 L-1336.64,4239.237 L-1326.137,4255.414 L-1333.621,4255.414 L-1340.435,4244.536 L-1347.269,4255.414 z" fill="#FFFFFF"/>
      <path d="M-1322.783,4255.414 L-1322.783,4224.219 L-1316.577,4224.219 L-1316.577,4250.115 L-1301.147,4250.115 L-1301.147,4255.414 z" fill="#FFFFFF"/>
      <path d="M-1297.982,4239.88 Q-1297.982,4235.075 -1296.577,4231.813 Q-1295.529,4229.411 -1293.715,4227.501 Q-1291.902,4225.592 -1289.743,4224.669 Q-1286.87,4223.425 -1283.118,4223.425 Q-1276.325,4223.425 -1272.248,4227.737 Q-1268.17,4232.05 -1268.17,4239.73 Q-1268.17,4247.347 -1272.216,4251.648 Q-1276.262,4255.95 -1283.034,4255.95 Q-1289.889,4255.95 -1293.936,4251.67 Q-1297.982,4247.39 -1297.982,4239.88 z M-1291.588,4239.666 Q-1291.588,4245.008 -1289.177,4247.765 Q-1286.766,4250.522 -1283.055,4250.522 Q-1279.344,4250.522 -1276.965,4247.787 Q-1274.585,4245.051 -1274.585,4239.58 Q-1274.585,4234.174 -1276.902,4231.513 Q-1279.219,4228.853 -1283.055,4228.853 Q-1286.891,4228.853 -1289.24,4231.545 Q-1291.588,4234.238 -1291.588,4239.666 z" fill="#FFFFFF"/>
      <path d="M-1263.265,4255.414 L-1263.265,4223.961 L-1257.227,4223.961 L-1244.648,4244.965 L-1244.648,4223.961 L-1238.883,4223.961 L-1238.883,4255.414 L-1245.109,4255.414 L-1257.499,4234.903 L-1257.499,4255.414 z" fill="#FFFFFF"/>
      <path d="M-1200.727,4243.85 L-1194.711,4245.802 Q-1196.094,4250.951 -1199.312,4253.451 Q-1202.53,4255.95 -1207.478,4255.95 Q-1213.6,4255.95 -1217.541,4251.67 Q-1221.482,4247.39 -1221.482,4239.966 Q-1221.482,4232.114 -1217.52,4227.77 Q-1213.558,4223.425 -1207.101,4223.425 Q-1201.461,4223.425 -1197.939,4226.836 Q-1195.843,4228.853 -1194.794,4232.629 L-1200.937,4234.131 Q-1201.482,4231.685 -1203.212,4230.269 Q-1204.941,4228.853 -1207.415,4228.853 Q-1210.832,4228.853 -1212.96,4231.363 Q-1215.088,4233.873 -1215.088,4239.495 Q-1215.088,4245.459 -1212.992,4247.991 Q-1210.895,4250.522 -1207.541,4250.522 Q-1205.067,4250.522 -1203.285,4248.913 Q-1201.503,4247.304 -1200.727,4243.85 z" fill="#FFFFFF"/>
      <path d="M-1183.557,4223.961 L-1183.557,4235.525 Q-1180.706,4232.114 -1176.744,4232.114 Q-1174.71,4232.114 -1173.075,4232.886 Q-1171.44,4233.659 -1170.612,4234.86 Q-1169.784,4236.062 -1169.48,4237.521 Q-1169.176,4238.979 -1169.176,4242.047 L-1169.176,4255.414 L-1175.067,4255.414 L-1175.067,4243.378 Q-1175.067,4239.795 -1175.402,4238.829 Q-1175.738,4237.864 -1176.587,4237.295 Q-1177.436,4236.727 -1178.715,4236.727 Q-1180.182,4236.727 -1181.335,4237.456 Q-1182.488,4238.186 -1183.023,4239.655 Q-1183.557,4241.125 -1183.557,4244 L-1183.557,4255.414 L-1189.448,4255.414 L-1189.448,4223.961 z" fill="#FFFFFF"/>
      <path d="M-1158.798,4239.58 L-1164.144,4238.593 Q-1163.243,4235.289 -1161.042,4233.702 Q-1158.84,4232.114 -1154.501,4232.114 Q-1150.559,4232.114 -1148.631,4233.069 Q-1146.702,4234.023 -1145.916,4235.493 Q-1145.13,4236.963 -1145.13,4240.889 L-1145.192,4247.926 Q-1145.192,4250.93 -1144.909,4252.356 Q-1144.626,4253.783 -1143.851,4255.414 L-1149.679,4255.414 Q-1149.909,4254.813 -1150.245,4253.633 Q-1150.392,4253.097 -1150.454,4252.925 Q-1151.964,4254.427 -1153.683,4255.178 Q-1155.402,4255.929 -1157.352,4255.929 Q-1160.79,4255.929 -1162.771,4254.019 Q-1164.752,4252.11 -1164.752,4249.192 Q-1164.752,4247.261 -1163.851,4245.749 Q-1162.949,4244.236 -1161.325,4243.431 Q-1159.7,4242.627 -1156.639,4242.026 Q-1152.509,4241.232 -1150.916,4240.546 L-1150.916,4239.945 Q-1150.916,4238.207 -1151.754,4237.467 Q-1152.593,4236.727 -1154.92,4236.727 Q-1156.492,4236.727 -1157.373,4237.36 Q-1158.253,4237.993 -1158.798,4239.58 z M-1150.916,4244.472 Q-1152.048,4244.858 -1154.501,4245.395 Q-1156.953,4245.931 -1157.708,4246.446 Q-1158.861,4247.283 -1158.861,4248.57 Q-1158.861,4249.835 -1157.939,4250.758 Q-1157.016,4251.681 -1155.591,4251.681 Q-1153.998,4251.681 -1152.551,4250.608 Q-1151.482,4249.792 -1151.146,4248.613 Q-1150.916,4247.84 -1150.916,4245.673 z" fill="#FFFFFF"/>
      <path d="M-1139.322,4229.54 L-1139.322,4223.961 L-1133.431,4223.961 L-1133.431,4229.54 z M-1139.322,4255.414 L-1139.322,4232.629 L-1133.431,4232.629 L-1133.431,4255.414 z" fill="#FFFFFF"/>
      <path d="M-1107.142,4255.414 L-1113.033,4255.414 L-1113.033,4243.785 Q-1113.033,4240.095 -1113.41,4239.012 Q-1113.788,4237.928 -1114.637,4237.328 Q-1115.486,4236.727 -1116.681,4236.727 Q-1118.211,4236.727 -1119.427,4237.585 Q-1120.643,4238.443 -1121.094,4239.859 Q-1121.544,4241.275 -1121.544,4245.094 L-1121.544,4255.414 L-1127.435,4255.414 L-1127.435,4232.629 L-1121.964,4232.629 L-1121.964,4235.976 Q-1119.05,4232.114 -1114.626,4232.114 Q-1112.677,4232.114 -1111.062,4232.833 Q-1109.448,4233.551 -1108.62,4234.667 Q-1107.792,4235.783 -1107.467,4237.199 Q-1107.142,4238.615 -1107.142,4241.254 z" fill="#FFFFFF"/>
    </g>
    <path d="M-1387.587,4212.923 C-1372.529,4212.923 -1360.322,4225.13 -1360.322,4240.188 C-1360.322,4255.247 -1372.529,4267.454 -1387.587,4267.454 C-1402.645,4267.454 -1414.852,4255.247 -1414.852,4240.188 C-1414.852,4225.13 -1402.645,4212.923 -1387.587,4212.923 z M-1373.406,4239.055 C-1374.678,4239.233 -1375.182,4239.343 -1376.145,4240.252 L-1390.78,4254.888 C-1392.189,4256.296 -1392.382,4258.386 -1391.213,4259.556 C-1390.043,4260.726 -1387.953,4260.532 -1386.544,4259.124 L-1371.909,4244.488 C-1370.5,4243.08 -1370.307,4240.989 -1371.477,4239.82 C-1372.029,4239.331 -1372.659,4239.06 -1373.406,4239.055 z M-1387.995,4237.086 L-1388.398,4237.087 C-1388.969,4237.247 -1389.469,4237.346 -1389.886,4237.792 L-1401.138,4249.043 C-1402.221,4250.126 -1402.072,4252.03 -1400.806,4253.296 C-1399.54,4254.563 -1397.635,4254.711 -1396.552,4253.628 L-1385.301,4242.376 C-1384.218,4241.294 -1384.367,4239.39 -1385.633,4238.124 C-1386.422,4237.399 -1386.969,4237.241 -1387.995,4237.086 z M-1385.891,4220.056 C-1387.163,4220.234 -1387.667,4220.344 -1388.63,4221.253 L-1403.265,4235.889 C-1404.674,4237.297 -1404.867,4239.387 -1403.697,4240.557 C-1402.528,4241.727 -1400.438,4241.533 -1399.029,4240.125 L-1384.394,4225.489 C-1382.985,4224.081 -1382.792,4221.991 -1383.961,4220.821 C-1384.514,4220.332 -1385.143,4220.062 -1385.891,4220.056 z" fill="#FFFFFF"/>
  </g>
</svg>
