<?xml version="1.0" encoding="UTF-8"?>
<!DOCTYPE svg PUBLIC "-//W3C//DTD SVG 1.1//EN" "http://www.w3.org/Graphics/SVG/1.1/DTD/svg11.dtd">
<svg version="1.1" xmlns="http://www.w3.org/2000/svg" xmlns:xlink="http://www.w3.org/1999/xlink" x="0" y="0" width="446.842" height="446.842" viewBox="0, 0, 446.842, 446.842">
  <g id="Layer_1" transform="translate(-188.255, -2730.42)">
    <path d="M411.676,2730.42 C535.068,2730.42 635.097,2830.449 635.097,2953.841 C635.097,3077.233 535.068,3177.262 411.676,3177.262 C288.284,3177.262 188.255,3077.233 188.255,2953.841 C188.255,2830.449 288.284,2730.42 411.676,2730.42 z M527.877,2944.552 C526.149,2944.713 524.398,2944.713 522.692,2945.032 C516.099,2946.266 510.193,2949.706 505.437,2954.362 L385.508,3074.29 C373.967,3085.831 372.382,3102.957 381.967,3112.542 C391.552,3122.127 408.678,3120.542 420.219,3109.001 L540.148,2989.073 C551.688,2977.531 553.274,2960.406 543.689,2950.82 C538.995,2946.665 534.205,2944.688 527.877,2944.552 z M407.347,2928.271 C400.853,2929.035 397.872,2929.561 392.838,2934.2 L300.636,3026.402 C291.764,3035.274 292.982,3050.878 303.357,3061.253 C313.733,3071.629 329.336,3072.847 338.209,3063.974 L430.41,2971.773 C439.283,2962.9 438.065,2947.297 427.689,2936.921 C421.96,2931.666 415.264,2928.28 407.347,2928.271 z M425.573,2788.871 C423.845,2789.031 422.094,2789.031 420.388,2789.351 C413.795,2790.584 407.888,2794.024 403.132,2798.68 L283.204,2918.608 C271.663,2930.149 270.077,2947.275 279.662,2956.86 C289.248,2966.446 306.374,2964.86 317.914,2953.319 L437.843,2833.39 C449.384,2821.85 450.97,2804.724 441.384,2795.138 C436.691,2790.983 431.901,2789.006 425.573,2788.871 z" fill="#FFFFFF"/>
  </g>
</svg>
